PathFileType	4	(X/Y/Z)	./resultDataOpenSim/trcMotMarkerGrf/sub06/qtm-01-05.trc
DataRate	CameraRate	NumFrames	NumMarkers	Units	OrigDataRate	OrigDataStartFrame	OrigNumFrames
250.000000	250.000000	8	24	m	250.000000	126	503
Frame#	Time	L.Toe.Tip			R.Toe.Tip			L.Ankle.Lat			R.Ankle.Lat			L.Ankle.Med			R.Ankle.Med			L.Heel			R.Heel			L.Knee.Lat			R.Knee.Lat			L.Knee.Med			R.Knee.Med			L.Thigh.Upper			R.Thigh.Upper			L.ASIS			R.ASIS			V.Sacral			L.Acromium			R.Acromium			C7			L.Elbow			R.Elbow			L.Wrist.Lat			R.Wrist.Lat
		X1	Y1	Z1	X2	Y2	Z2	X3	Y3	Z3	X4	Y4	Z4	X5	Y5	Z5	X6	Y6	Z6	X7	Y7	Z7	X8	Y8	Z8	X9	Y9	Z9	X10	Y10	Z10	X11	Y11	Z11	X12	Y12	Z12	X13	Y13	Z13	X14	Y14	Z14	X15	Y15	Z15	X16	Y16	Z16	X17	Y17	Z17	X18	Y18	Z18	X19	Y19	Z19	X20	Y20	Z20	X21	Y21	Z21	X22	Y22	Z22	X23	Y23	Z23	X24	Y24	Z24

126	0.5	-0.36436301	0.065585138	-0.11092029	-0.75708825	0.035110286	0.058819763	-0.49004251	0.08752718	-0.12222076	-0.88955329	0.07031131	0.079935958	-0.48259702	0.10404268	-0.037095541	-0.86722043	0.091993289	-0.0049127061	-0.55414647	0.049087238	-0.069240393	-0.94574003	0.053935208	0.01598562	-0.4713654	0.4655544	-0.1251858	-0.76302142	0.43765299	0.12343985	-0.48525802	0.45508058	-0.0030350317	-0.79148007	0.44082475	-0.0071816904	-0.64826456	0.81875336	-0.15345298	-0.69966148	0.79866292	0.19218515	-0.58709229	0.86024669	-0.098020231	-0.59364383	0.85090103	0.14946903	-0.77776215	0.93305934	0.023449112	-0.65832145	1.3443687	-0.16138704	-0.64060344	1.3256166	0.19802885	-0.72391525	1.3714645	0.022677655	-0.76667955	1.0467517	-0.20908163	-0.67841255	1.0108784	0.28677026	-0.66588538	0.82637612	-0.25031629	-0.4528289	0.89915502	0.28363076
127	0.504	-0.34523118	0.068484867	-0.10922666	-0.7569866	0.035103587	0.058832541	-0.47161356	0.086706127	-0.12160419	-0.88961293	0.070690019	0.07962716	-0.46516584	0.10309086	-0.036356866	-0.86654901	0.092239313	-0.005150505	-0.53469758	0.046171815	-0.068666246	-0.94543184	0.054606672	0.015540692	-0.46458996	0.46444135	-0.12420358	-0.75982258	0.43714632	0.12326466	-0.47884409	0.45355795	-0.0018584819	-0.78780079	0.4403634	-0.0075223762	-0.64161343	0.81734654	-0.15354183	-0.6945143	0.79757914	0.19188683	-0.58055249	0.85871676	-0.098073987	-0.5872139	0.84967299	0.15228722	-0.77283459	0.93148688	0.020632073	-0.65238429	1.3430193	-0.16131378	-0.63464056	1.3242479	0.19817724	-0.7179084	1.3701443	0.022761965	-0.76158936	1.0458545	-0.20889697	-0.67041663	1.0093005	0.28717819	-0.66170252	0.82522788	-0.25096177	-0.44361987	0.90032995	0.28293113
128	0.508	-0.32643418	0.071570278	-0.10751794	-0.7568811	0.035093672	0.05883415	-0.45328638	0.086205211	-0.12092894	-0.88956868	0.071113254	0.079323884	-0.44776432	0.10257134	-0.035564068	-0.86586686	0.092492512	-0.0053897642	-0.51543918	0.043679489	-0.067855339	-0.94510643	0.055316198	0.015085652	-0.45788227	0.46321217	-0.1231884	-0.75650717	0.43662738	0.12309786	-0.47245934	0.45190676	-0.00065587429	-0.78404696	0.43986654	-0.0078483421	-0.63494872	0.81585456	-0.15363386	-0.68943237	0.79656118	0.19168207	-0.57395499	0.85714365	-0.098125015	-0.58179009	0.8485996	0.15441197	-0.76691787	0.92994259	0.018521251	-0.64642379	1.3416061	-0.16124892	-0.62865327	1.3228201	0.19831836	-0.71188826	1.3687802	0.022840125	-0.75642868	1.0449019	-0.20871129	-0.6625735	1.0076427	0.28759271	-0.65754448	0.82403191	-0.25160225	-0.43448437	0.90143132	0.28221477
129	0.512	-0.30796937	0.074871479	-0.10579534	-0.75679146	0.035062439	0.058815382	-0.43510189	0.085957142	-0.12006466	-0.88936884	0.071609407	0.079022548	-0.43051069	0.10241876	-0.034789408	-0.86521454	0.092752434	-0.0056624562	-0.49650819	0.041675254	-0.0667466	-0.94477778	0.056069823	0.014637142	-0.45119705	0.46187879	-0.12213245	-0.75309187	0.43610601	0.12293458	-0.4660577	0.45015664	0.00059372261	-0.78023273	0.43933735	-0.0081355687	-0.62821626	0.81429907	-0.15372539	-0.68428957	0.79549085	0.19147824	-0.5673318	0.85552565	-0.098185365	-0.57730554	0.84747251	0.15474922	-0.7607074	0.92839595	0.017249509	-0.64044025	1.340144	-0.16118619	-0.62264466	1.3213433	0.19844866	-0.70585696	1.3673787	0.022909937	-0.7511993	1.0439032	-0.20853666	-0.65484028	1.0059339	0.28799063	-0.65346526	0.82274667	-0.25224022	-0.42542935	0.90245831	0.28148961
130	0.516	-0.28981725	0.078431203	-0.10407049	-0.75672797	0.034995532	0.058772024	-0.41715336	0.08595955	-0.1190525	-0.88907293	0.072160395	0.078723401	-0.4134443	0.10258843	-0.03402976	-0.86461514	0.093019227	-0.0059853114	-0.47789107	0.04011731	-0.065485611	-0.94445578	0.05686286	0.014221365	-0.44450396	0.46046241	-0.12104781	-0.74961777	0.43556509	0.12276008	-0.45960003	0.44832097	0.0019081826	-0.7763694	0.43878449	-0.0083729651	-0.62147138	0.81268709	-0.15383899	-0.67902455	0.79432843	0.19122394	-0.5607036	0.85386434	-0.098263832	-0.5729885	0.84607198	0.15342507	-0.75456538	0.92686863	0.016358031	-0.63443447	1.3386434	-0.16112575	-0.61660594	1.3198383	0.19856121	-0.69981241	1.3659471	0.022967525	-0.74590425	1.0428681	-0.20838998	-0.64712854	1.0042118	0.28833478	-0.64941259	0.82136544	-0.25286261	-0.41646385	0.90341004	0.28076018
131	0.52	-0.27201281	0.082250593	-0.10237817	-0.75668356	0.034905148	0.058712013	-0.39953689	0.086276728	-0.11804868	-0.88874514	0.072742678	0.078437386	-0.39656583	0.10306383	-0.033235515	-0.86405312	0.093295984	-0.0063383261	-0.45944711	0.03885387	-0.06440616	-0.94414069	0.057694097	0.013857244	-0.4377991	0.45898524	-0.11995252	-0.74611456	0.43497594	0.12256658	-0.4530865	0.44640566	0.0032875865	-0.7724663	0.43822084	-0.0085712764	-0.61475231	0.81101704	-0.15399596	-0.67363053	0.79309164	0.19089648	-0.55406932	0.85216809	-0.098360762	-0.56830881	0.84442829	0.15154627	-0.74835373	0.925465	0.015606838	-0.62840782	1.337109	-0.16107748	-0.61053549	1.3183192	0.19865233	-0.69375078	1.3644907	0.023009562	-0.74053575	1.0417977	-0.20826823	-0.63938711	1.0024981	0.28860414	-0.64533958	0.81990307	-0.25347362	-0.40758833	0.90428413	0.2800265
132	0.524	-0.25462244	0.086275339	-0.10074222	-0.75663864	0.034825349	0.058652067	-0.38226091	0.08697922	-0.11711498	-0.88841078	0.073359859	0.078185649	-0.37994201	0.10379681	-0.032405924	-0.86348731	0.093593522	-0.0066725191	-0.44110491	0.037753175	-0.063811276	-0.94382283	0.058585001	0.013545167	-0.43109443	0.45745936	-0.11885227	-0.74258006	0.43432563	0.12236055	-0.44654114	0.44442695	0.0047154287	-0.7685284	0.43766063	-0.0087585416	-0.60798594	0.80929475	-0.15418174	-0.6681109	0.79178441	0.19047201	-0.54741158	0.85044905	-0.098469581	-0.56335525	0.84277002	0.15020007	-0.74182451	0.92423578	0.015157367	-0.62235679	1.3355401	-0.16104996	-0.60443904	1.3167843	0.1987232	-0.68766945	1.3630136	0.023034247	-0.7350784	1.0406825	-0.20814262	-0.63161286	1.0007847	0.28881135	-0.64127726	0.81836543	-0.25411123	-0.39879394	0.90507635	0.27928817
133	0.528	-0.23771215	0.090427179	-0.099158826	-0.75658091	0.034775901	0.058603439	-0.36525671	0.088103655	-0.11620954	-0.88806815	0.074027937	0.077982102	-0.36373387	0.10469563	-0.031612076	-0.86288868	0.093926065	-0.0069477299	-0.42293679	0.036792433	-0.063754676	-0.94348828	0.059562502	0.013274355	-0.424391	0.45589529	-0.117732	-0.73898965	0.43362799	0.1221596	-0.43998477	0.44241969	0.0061639018	-0.76452788	0.43711068	-0.0089566244	-0.60107439	0.80753523	-0.15436332	-0.66250468	0.79042487	0.18995138	-0.54071164	0.84871304	-0.098585724	-0.55834166	0.84121064	0.14966895	-0.73496393	0.92305916	0.01507658	-0.61627744	1.3339367	-0.16104522	-0.59832367	1.3152274	0.19877718	-0.68156336	1.3615187	0.023038571	-0.72952572	1.0395099	-0.20798925	-0.623829	0.99904673	0.28898986	-0.63728201	0.81675689	-0.25481429	-0.39006737	0.9057803	0.27854169
